<svg id="Layer_1" data-name="Layer 1" xmlns="http://www.w3.org/2000/svg" viewBox="0 0 850.63 850.63"><defs><style>.cls-1{fill:#333;}.cls-1,.cls-2{stroke:#000;}.cls-1,.cls-2,.cls-4{stroke-miterlimit:10;}.cls-1,.cls-4{stroke-width:1.63px;}.cls-2{fill:none;stroke-width:32.65px;}.cls-3{fill:#3fa9f5;}.cls-4{fill:#fff;stroke:#fff;}</style></defs><circle class="cls-1" cx="425.32" cy="425.32" r="424.5"/><path class="cls-2" d="M953.7,506" transform="translate(-538.18 -120.18)"/><path class="cls-3" d="M709,559.06a205.38,205.38,0,0,1-21.55-24.29,183.1,183.1,0,0,1-17.57-28,132.31,132.31,0,0,1-11.48-32.2,95.5,95.5,0,0,1-2-17.79A81.62,81.62,0,0,1,658,438.3a75.74,75.74,0,0,1,6.21-18.14A76.72,76.72,0,0,1,674.91,404a91.86,91.86,0,0,1,30.24-22.46,137,137,0,0,1,34.14-10.73c5.75-1,11.5-1.77,17.23-2.3s11.43-.72,17.11-.8a297.61,297.61,0,0,1,66.48,7.51,403.94,403.94,0,0,1,62.74,19.53,461.45,461.45,0,0,1,58.5,28.48c9.35,5.44,18.52,11.15,27.42,17.24s17.59,12.46,25.89,19.36l-30.08-11.28c-10-3.68-19.94-7.31-29.92-10.74-19.95-6.89-39.92-13.26-60-18.7a615.6,615.6,0,0,0-60.45-13.46c-20.18-3.35-40.44-5.43-60.28-5.29a199.88,199.88,0,0,0-29.18,2.2,120.35,120.35,0,0,0-26.93,7.2A68.25,68.25,0,0,0,696,423.49a53,53,0,0,0-13.22,21.19,64,64,0,0,0-2.86,13,90.68,90.68,0,0,0-.37,14,114.56,114.56,0,0,0,1.75,14.54c.86,4.9,2,9.8,3.42,14.7s3,9.79,4.75,14.68,3.73,9.72,5.78,14.57C699.43,539.89,704.16,549.42,709,559.06Z" transform="translate(-538.18 -120.18)"/><path class="cls-3" d="M830.93,774.12a205.88,205.88,0,0,1-31.8,6.52,182.19,182.19,0,0,1-33,1.23,132.58,132.58,0,0,1-33.62-6.16,95.81,95.81,0,0,1-16.43-7.12,81.4,81.4,0,0,1-15.22-10.68,75.54,75.54,0,0,1-12.6-14.44,76.71,76.71,0,0,1-8.67-17.35,91.83,91.83,0,0,1-4.34-37.42A137.38,137.38,0,0,1,683,653.76c2-5.5,4.22-10.84,6.63-16.06s5.09-10.26,7.86-15.22a297.56,297.56,0,0,1,39.74-53.82,404.49,404.49,0,0,1,48.28-44.57,462,462,0,0,1,53.92-36.42c9.38-5.38,18.91-10.47,28.64-15.13s19.59-9,29.71-12.74L873,480.21c-8.19,6.81-16.31,13.61-24.27,20.55-15.94,13.83-31.44,27.93-46.2,42.62A612.53,612.53,0,0,0,760.64,589a355,355,0,0,0-34.73,49.56,199.7,199.7,0,0,0-12.68,26.38A120,120,0,0,0,706,691.85a68.11,68.11,0,0,0,1,25.72,53,53,0,0,0,11.73,22,64.27,64.27,0,0,0,9.84,9,92,92,0,0,0,12,7.34,116,116,0,0,0,13.47,5.75c4.67,1.71,9.51,3.13,14.44,4.4s10,2.28,15.08,3.22,10.29,1.62,15.51,2.27C809.53,772.84,820.16,773.51,830.93,774.12Z" transform="translate(-538.18 -120.18)"/><path class="cls-3" d="M1078.14,776.07a205.28,205.28,0,0,1-10.26,30.8,182.48,182.48,0,0,1-15.44,29.21,132.54,132.54,0,0,1-22.15,26,96.35,96.35,0,0,1-14.38,10.66,81.82,81.82,0,0,1-16.85,7.84,75.57,75.57,0,0,1-18.81,3.69,77.22,77.22,0,0,1-19.37-1.16,91.85,91.85,0,0,1-34.57-15A136.6,136.6,0,0,1,900,844c-3.79-4.45-7.29-9.07-10.61-13.76s-6.34-9.54-9.25-14.42a297.58,297.58,0,0,1-26.73-61.33,404.23,404.23,0,0,1-14.46-64.09,462.56,462.56,0,0,1-4.59-64.91c0-10.82.4-21.61,1.23-32.37s2-21.46,3.81-32.1l5.28,31.69c1.8,10.49,3.63,20.92,5.66,31.28,4,20.72,8.47,41.2,13.81,61.33a615.5,615.5,0,0,0,18.57,59.08c7.19,19.15,15.52,37.73,25.56,54.85a199.22,199.22,0,0,0,16.5,24.17,120,120,0,0,0,19.69,19.72,68.35,68.35,0,0,0,22.8,12,52.81,52.81,0,0,0,25,.86,63.05,63.05,0,0,0,12.69-4,90,90,0,0,0,12.34-6.69,114.76,114.76,0,0,0,11.72-8.79c3.82-3.19,7.46-6.67,11-10.31s7-7.5,10.33-11.45,6.55-8.1,9.72-12.29C1066.33,794,1072.22,785.1,1078.14,776.07Z" transform="translate(-538.18 -120.18)"/><path class="cls-3" d="M1203.43,563A204.41,204.41,0,0,1,1225,587.25a182.38,182.38,0,0,1,17.58,28,132.46,132.46,0,0,1,11.48,32.2,94.66,94.66,0,0,1,2,17.79,81.74,81.74,0,0,1-1.63,18.52,75.82,75.82,0,0,1-6.21,18.13,77.11,77.11,0,0,1-10.69,16.19,92,92,0,0,1-30.24,22.47,137.4,137.4,0,0,1-34.14,10.72c-5.75,1-11.5,1.77-17.23,2.3s-11.43.72-17.11.8a297.54,297.54,0,0,1-66.48-7.51,404.32,404.32,0,0,1-62.74-19.52,462.86,462.86,0,0,1-58.5-28.49c-9.35-5.44-18.52-11.14-27.42-17.24s-17.59-12.46-25.89-19.36l30.08,11.28c10,3.68,19.94,7.31,29.92,10.74,20,6.89,39.92,13.26,60,18.7a616.43,616.43,0,0,0,60.46,13.46c20.18,3.35,40.44,5.43,60.28,5.29a199.88,199.88,0,0,0,29.18-2.2,120.26,120.26,0,0,0,26.92-7.2,68.19,68.19,0,0,0,21.77-13.76,53,53,0,0,0,13.22-21.18,64.28,64.28,0,0,0,2.86-13,90.68,90.68,0,0,0,.37-14,116.4,116.4,0,0,0-1.75-14.54c-.86-4.9-2-9.8-3.42-14.7s-3-9.79-4.75-14.68-3.74-9.72-5.78-14.57C1213,582.13,1208.29,572.6,1203.43,563Z" transform="translate(-538.18 -120.18)"/><path class="cls-3" d="M1081.52,347.9a204.69,204.69,0,0,1,31.8-6.51,181.29,181.29,0,0,1,33-1.24,132.58,132.58,0,0,1,33.62,6.16,95.81,95.81,0,0,1,16.43,7.12,81.4,81.4,0,0,1,15.22,10.68,75.84,75.84,0,0,1,12.6,14.44,77,77,0,0,1,8.67,17.36,91.79,91.79,0,0,1,4.34,37.42,137,137,0,0,1-7.79,34.93c-2,5.5-4.21,10.84-6.62,16.06s-5.09,10.27-7.86,15.22a297.21,297.21,0,0,1-39.74,53.82,404.49,404.49,0,0,1-48.28,44.57A462,462,0,0,1,1073,634.35c-9.38,5.38-18.91,10.47-28.64,15.13s-19.59,9-29.71,12.74l24.8-20.41c8.19-6.81,16.31-13.61,24.27-20.54,15.94-13.84,31.44-27.94,46.2-42.62A616.83,616.83,0,0,0,1151.81,533a355,355,0,0,0,34.73-49.56,200.18,200.18,0,0,0,12.68-26.37,120.24,120.24,0,0,0,7.23-26.92,68.32,68.32,0,0,0-1-25.72,53,53,0,0,0-11.73-22.05,64.74,64.74,0,0,0-9.84-9,92,92,0,0,0-12-7.34,116.75,116.75,0,0,0-13.47-5.75c-4.67-1.71-9.51-3.12-14.44-4.39s-10-2.29-15.08-3.23-10.29-1.62-15.51-2.27C1102.92,349.18,1092.29,348.51,1081.52,347.9Z" transform="translate(-538.18 -120.18)"/><path class="cls-3" d="M834.31,346a205.28,205.28,0,0,1,10.26-30.8A181.68,181.68,0,0,1,860,285.94a132.15,132.15,0,0,1,22.15-26,95.72,95.72,0,0,1,14.38-10.67,81.82,81.82,0,0,1,16.85-7.84,76.12,76.12,0,0,1,38.18-2.52,91.68,91.68,0,0,1,34.57,14.95A136.6,136.6,0,0,1,1012.5,278c3.79,4.45,7.28,9.07,10.61,13.76s6.34,9.55,9.25,14.42a297.81,297.81,0,0,1,26.73,61.33,404.1,404.1,0,0,1,14.46,64.1,462.31,462.31,0,0,1,4.59,64.9c0,10.82-.4,21.61-1.23,32.37s-2,21.46-3.82,32.1l-5.27-31.69c-1.8-10.49-3.63-20.92-5.66-31.28-4-20.72-8.47-41.2-13.81-61.32a615.69,615.69,0,0,0-18.57-59.09c-7.19-19.15-15.52-37.73-25.56-54.85a199.22,199.22,0,0,0-16.5-24.17A120.43,120.43,0,0,0,968,278.89a68.35,68.35,0,0,0-22.8-12,52.81,52.81,0,0,0-25-.86,63.05,63.05,0,0,0-12.69,4,91.79,91.79,0,0,0-12.35,6.69,117.27,117.27,0,0,0-11.71,8.79c-3.82,3.19-7.46,6.67-11,10.31s-7,7.5-10.33,11.45-6.55,8.1-9.73,12.29C846.12,328.06,840.23,336.92,834.31,346Z" transform="translate(-538.18 -120.18)"/><circle class="cls-4" cx="415.52" cy="435.11" r="48.98"/></svg>